<?xml version="1.0" encoding="UTF-8" standalone="no"?>
<!DOCTYPE svg PUBLIC "-//W3C//DTD SVG 1.1//EN"
 "http://www.w3.org/Graphics/SVG/1.1/DTD/svg11.dtd">
<!-- Generated by graphviz version 2.36.0 (20140111.2315)
 -->
<!-- Title: finite_state_machine Pages: 1 -->
<svg width="576pt" height="233pt"
 viewBox="0.00 0.00 576.00 233.07" xmlns="http://www.w3.org/2000/svg" xmlns:xlink="http://www.w3.org/1999/xlink">
<g id="graph0" class="graph" transform="scale(0.820513 0.820513) rotate(0) translate(4 280.056)">
<title>finite_state_machine</title>
<polygon fill="white" stroke="none" points="-4,4 -4,-280.056 698,-280.056 698,4 -4,4"/>
<!-- init -->
<g id="node1" class="node"><title>init</title>
<ellipse fill="black" stroke="black" cx="2" cy="-73.056" rx="1.8" ry="1.8"/>
</g>
<!-- Start -->
<g id="node2" class="node"><title>Start</title>
<ellipse fill="none" stroke="black" cx="70" cy="-73.056" rx="27.0966" ry="27.0966"/>
<text text-anchor="middle" x="70" y="-69.356" font-family="Times,serif" font-size="14.00">Start</text>
</g>
<!-- init&#45;&gt;Start -->
<g id="edge1" class="edge"><title>init&#45;&gt;Start</title>
<path fill="none" stroke="black" d="M4.14555,-73.056C7.81938,-73.056 19.8094,-73.056 32.4978,-73.056"/>
<polygon fill="black" stroke="black" points="32.678,-76.5561 42.678,-73.056 32.6779,-69.5561 32.678,-76.5561"/>
</g>
<!-- Start&#45;&gt;Start -->
<g id="edge2" class="edge"><title>Start&#45;&gt;Start</title>
<path fill="none" stroke="black" d="M61.4276,-98.9521C60.9433,-109.338 63.8008,-118.056 70,-118.056 73.9714,-118.056 76.5713,-114.478 77.7997,-109.176"/>
<polygon fill="black" stroke="black" points="81.3088,-109.187 78.5724,-98.9521 74.3287,-108.66 81.3088,-109.187"/>
<text text-anchor="middle" x="70" y="-121.856" font-family="Times,serif" font-size="14.00">\w</text>
</g>
<!-- pitch -->
<g id="node3" class="node"><title>pitch</title>
<ellipse fill="none" stroke="black" cx="233" cy="-73.056" rx="24.7476" ry="24.7476"/>
<text text-anchor="middle" x="233" y="-69.956" font-family="Times,serif" font-size="12.00">pitch</text>
</g>
<!-- Start&#45;&gt;pitch -->
<g id="edge3" class="edge"><title>Start&#45;&gt;pitch</title>
<path fill="none" stroke="black" d="M97.5859,-73.056C125.029,-73.056 167.943,-73.056 197.875,-73.056"/>
<polygon fill="black" stroke="black" points="198.263,-76.5561 208.263,-73.056 198.263,-69.5561 198.263,-76.5561"/>
<text text-anchor="middle" x="153" y="-76.856" font-family="Times,serif" font-size="14.00">1,2,4,8,16,32</text>
</g>
<!-- dot -->
<g id="node4" class="node"><title>dot</title>
<ellipse fill="none" stroke="black" cx="324" cy="-141.056" rx="19.8996" ry="19.8996"/>
<text text-anchor="middle" x="324" y="-137.956" font-family="Times,serif" font-size="12.00">dot</text>
</g>
<!-- pitch&#45;&gt;dot -->
<g id="edge4" class="edge"><title>pitch&#45;&gt;dot</title>
<path fill="none" stroke="black" d="M252.875,-87.477C266.609,-97.971 285.284,-112.24 299.909,-123.414"/>
<polygon fill="black" stroke="black" points="297.913,-126.293 307.984,-129.583 302.163,-120.731 297.913,-126.293"/>
<text text-anchor="middle" x="281" y="-115.856" font-family="Times,serif" font-size="14.00">&#39;.&#39;</text>
</g>
<!-- sharp -->
<g id="node6" class="node"><title>sharp</title>
<ellipse fill="none" stroke="black" cx="546" cy="-251.056" rx="25.7101" ry="25.7101"/>
<text text-anchor="middle" x="546" y="-247.956" font-family="Times,serif" font-size="12.00">sharp</text>
</g>
<!-- pitch&#45;&gt;sharp -->
<g id="edge5" class="edge"><title>pitch&#45;&gt;sharp</title>
<path fill="none" stroke="black" d="M245.615,-94.0403C269.581,-134.752 328.954,-223.084 408,-253.056 441.181,-265.637 482.213,-262.876 510.678,-258.382"/>
<polygon fill="black" stroke="black" points="511.302,-261.826 520.559,-256.672 510.109,-254.928 511.302,-261.826"/>
<text text-anchor="middle" x="376" y="-248.856" font-family="Times,serif" font-size="14.00">&#39;#&#39;</text>
</g>
<!-- tone -->
<g id="node7" class="node"><title>tone</title>
<ellipse fill="none" stroke="black" cx="546" cy="-132.056" rx="22.5556" ry="22.5556"/>
<text text-anchor="middle" x="546" y="-128.956" font-family="Times,serif" font-size="12.00">tone</text>
</g>
<!-- pitch&#45;&gt;tone -->
<g id="edge6" class="edge"><title>pitch&#45;&gt;tone</title>
<path fill="none" stroke="black" d="M256.82,-66.2333C305.735,-53.0314 422.672,-29.2037 502,-76.056 513.214,-82.6792 522.527,-93.451 529.584,-103.787"/>
<polygon fill="black" stroke="black" points="526.656,-105.705 534.975,-112.266 532.563,-101.949 526.656,-105.705"/>
<text text-anchor="middle" x="376" y="-52.856" font-family="Times,serif" font-size="14.00">[a&#45;h]</text>
</g>
<!-- rest -->
<g id="node8" class="node"><title>rest</title>
<ellipse fill="none" stroke="black" cx="546" cy="-36.056" rx="20.1304" ry="20.1304"/>
<text text-anchor="middle" x="546" y="-32.956" font-family="Times,serif" font-size="12.00">rest</text>
</g>
<!-- pitch&#45;&gt;rest -->
<g id="edge7" class="edge"><title>pitch&#45;&gt;rest</title>
<path fill="none" stroke="black" d="M247.414,-52.753C254.785,-43.0621 264.718,-32.0764 276,-25.056 309.592,-4.15187 322.772,-7.21105 362,-2.05599 417.405,5.22488 481.462,-12.8453 517.2,-25.3393"/>
<polygon fill="black" stroke="black" points="516.325,-28.7446 526.92,-28.8465 518.701,-22.1601 516.325,-28.7446"/>
<text text-anchor="middle" x="376" y="-5.85599" font-family="Times,serif" font-size="14.00">&#39;&#45;&#39;</text>
</g>
<!-- dot2 -->
<g id="node5" class="node"><title>dot2</title>
<ellipse fill="none" stroke="black" cx="432" cy="-141.056" rx="23.2851" ry="23.2851"/>
<text text-anchor="middle" x="432" y="-137.956" font-family="Times,serif" font-size="12.00">dot2</text>
</g>
<!-- dot&#45;&gt;dot2 -->
<g id="edge8" class="edge"><title>dot&#45;&gt;dot2</title>
<path fill="none" stroke="black" d="M343.951,-141.056C359.084,-141.056 380.639,-141.056 398.514,-141.056"/>
<polygon fill="black" stroke="black" points="398.536,-144.556 408.536,-141.056 398.536,-137.556 398.536,-144.556"/>
<text text-anchor="middle" x="376" y="-144.856" font-family="Times,serif" font-size="14.00">&#39;.&#39;</text>
</g>
<!-- dot&#45;&gt;sharp -->
<g id="edge9" class="edge"><title>dot&#45;&gt;sharp</title>
<path fill="none" stroke="black" d="M335.849,-156.766C342.683,-165.969 352.069,-177.438 362,-186.056 404.777,-223.177 470.214,-239.569 510.151,-246.453"/>
<polygon fill="black" stroke="black" points="509.783,-249.939 520.213,-248.079 510.899,-243.028 509.783,-249.939"/>
<text text-anchor="middle" x="432" y="-237.856" font-family="Times,serif" font-size="14.00">&#39;#&#39;</text>
</g>
<!-- dot&#45;&gt;tone -->
<g id="edge10" class="edge"><title>dot&#45;&gt;tone</title>
<path fill="none" stroke="black" d="M340.873,-152.076C372.759,-172.74 446.304,-212.902 502,-186.056 513.356,-180.582 522.639,-170.49 529.636,-160.499"/>
<polygon fill="black" stroke="black" points="532.725,-162.167 535.191,-151.863 526.837,-158.38 532.725,-162.167"/>
<text text-anchor="middle" x="432" y="-198.856" font-family="Times,serif" font-size="14.00">[a&#45;h]</text>
</g>
<!-- dot&#45;&gt;rest -->
<g id="edge11" class="edge"><title>dot&#45;&gt;rest</title>
<path fill="none" stroke="black" d="M341.235,-131.126C357.753,-121.199 384.234,-105.768 408,-94.056 444.935,-75.8549 488.998,-57.8301 516.987,-46.8206"/>
<polygon fill="black" stroke="black" points="518.487,-49.9924 526.529,-43.0945 515.94,-43.4719 518.487,-49.9924"/>
<text text-anchor="middle" x="432" y="-97.856" font-family="Times,serif" font-size="14.00">&#39;&#45;&#39;</text>
</g>
<!-- dot2&#45;&gt;sharp -->
<g id="edge12" class="edge"><title>dot2&#45;&gt;sharp</title>
<path fill="none" stroke="black" d="M449.526,-157.287C468.033,-175.463 498.242,-205.133 519.72,-226.228"/>
<polygon fill="black" stroke="black" points="517.333,-228.789 526.92,-233.299 522.238,-223.794 517.333,-228.789"/>
<text text-anchor="middle" x="488" y="-209.856" font-family="Times,serif" font-size="14.00">&#39;#&#39;</text>
</g>
<!-- dot2&#45;&gt;tone -->
<g id="edge13" class="edge"><title>dot2&#45;&gt;tone</title>
<path fill="none" stroke="black" d="M455.021,-136.009C461.134,-134.814 467.796,-133.7 474,-133.056 486.708,-131.737 500.764,-131.323 512.992,-131.296"/>
<polygon fill="black" stroke="black" points="513.168,-134.797 523.189,-131.359 513.211,-127.797 513.168,-134.797"/>
<text text-anchor="middle" x="488" y="-136.856" font-family="Times,serif" font-size="14.00">[a&#45;h]</text>
</g>
<!-- dot2&#45;&gt;rest -->
<g id="edge14" class="edge"><title>dot2&#45;&gt;rest</title>
<path fill="none" stroke="black" d="M449.526,-125.563C469.036,-107.273 501.551,-76.7894 523.132,-56.5569"/>
<polygon fill="black" stroke="black" points="525.643,-59.001 530.544,-49.6082 520.855,-53.8942 525.643,-59.001"/>
<text text-anchor="middle" x="488" y="-104.856" font-family="Times,serif" font-size="14.00">&#39;&#45;&#39;</text>
</g>
<!-- octave -->
<g id="node9" class="node"><title>octave</title>
<ellipse fill="none" stroke="black" cx="665" cy="-169.056" rx="28.8653" ry="28.8653"/>
<text text-anchor="middle" x="665" y="-165.956" font-family="Times,serif" font-size="12.00">octave</text>
</g>
<!-- tone&#45;&gt;octave -->
<g id="edge15" class="edge"><title>tone&#45;&gt;octave</title>
<path fill="none" stroke="black" d="M567.917,-138.671C584.449,-143.899 607.924,-151.323 627.532,-157.523"/>
<polygon fill="black" stroke="black" points="626.497,-160.867 637.087,-160.545 628.607,-154.193 626.497,-160.867"/>
<text text-anchor="middle" x="604" y="-157.856" font-family="Times,serif" font-size="14.00">[1&#45;3]</text>
</g>
<!-- triplet -->
<g id="node10" class="node"><title>triplet</title>
<ellipse fill="none" stroke="black" cx="665" cy="-95.056" rx="27.1719" ry="27.1719"/>
<text text-anchor="middle" x="665" y="-91.956" font-family="Times,serif" font-size="12.00">triplet</text>
</g>
<!-- tone&#45;&gt;triplet -->
<g id="edge16" class="edge"><title>tone&#45;&gt;triplet</title>
<path fill="none" stroke="black" d="M567.917,-125.441C584.898,-120.071 609.207,-112.384 629.124,-106.085"/>
<polygon fill="black" stroke="black" points="630.307,-109.382 638.786,-103.03 628.196,-102.708 630.307,-109.382"/>
<text text-anchor="middle" x="604" y="-121.856" font-family="Times,serif" font-size="14.00">&#39;t&#39;</text>
</g>
</g>
</svg>
